<svg width="249" height="249" viewBox="0 0 249 249" fill="none" xmlns="http://www.w3.org/2000/svg">
<path d="M228.25 193.027C228.25 195.091 227.43 197.07 225.971 198.529C224.512 199.988 222.532 200.808 220.469 200.808H167.556C165.823 207.27 162.007 212.981 156.698 217.053C151.389 221.125 144.886 223.333 138.195 223.333C131.504 223.333 125.001 221.125 119.692 217.053C114.383 212.981 110.567 207.27 108.834 200.808H28.5312C26.4675 200.808 24.4883 199.988 23.0291 198.529C21.5698 197.07 20.75 195.091 20.75 193.027C20.75 190.963 21.5698 188.984 23.0291 187.525C24.4883 186.065 26.4675 185.246 28.5312 185.246H108.834C110.567 178.783 114.383 173.073 119.692 169.001C125.001 164.928 131.504 162.721 138.195 162.721C144.886 162.721 151.389 164.928 156.698 169.001C162.007 173.073 165.823 178.783 167.556 185.246H220.469C222.532 185.246 224.512 186.065 225.971 187.525C227.43 188.984 228.25 190.963 228.25 193.027ZM228.25 55.9731C228.25 58.0369 227.43 60.016 225.971 61.4753C224.512 62.9346 222.532 63.7544 220.469 63.7544H195.05C193.317 70.2167 189.5 75.9268 184.192 79.9992C178.883 84.0717 172.379 86.2791 165.689 86.2791C158.998 86.2791 152.494 84.0717 147.186 79.9992C141.877 75.9268 138.061 70.2167 136.328 63.7544H28.5312C27.5094 63.7544 26.4976 63.5531 25.5535 63.1621C24.6094 62.771 23.7516 62.1979 23.0291 61.4753C22.3065 60.7528 21.7334 59.895 21.3423 58.9509C20.9513 58.0068 20.75 56.995 20.75 55.9731C20.75 54.9513 20.9513 53.9394 21.3423 52.9954C21.7334 52.0513 22.3065 51.1935 23.0291 50.471C23.7516 49.7484 24.6094 49.1752 25.5535 48.7842C26.4976 48.3932 27.5094 48.1919 28.5312 48.1919H136.328C138.061 41.7295 141.877 36.0195 147.186 31.947C152.494 27.8746 158.998 25.6672 165.689 25.6672C172.379 25.6672 178.883 27.8746 184.192 31.947C189.5 36.0195 193.317 41.7295 195.05 48.1919H220.469C221.494 48.1779 222.513 48.3697 223.463 48.7558C224.413 49.1419 225.277 49.7145 226.002 50.4399C226.727 51.1652 227.3 52.0286 227.686 52.9789C228.072 53.9293 228.264 54.9474 228.25 55.9731ZM228.25 124.448C228.264 125.474 228.072 126.492 227.686 127.442C227.3 128.393 226.727 129.256 226.002 129.981C225.277 130.707 224.413 131.279 223.463 131.666C222.513 132.052 221.494 132.243 220.469 132.229H99.0813C97.3482 138.692 93.5315 144.402 88.223 148.474C82.9145 152.547 76.4107 154.754 69.72 154.754C63.0293 154.754 56.5255 152.547 51.217 148.474C45.9085 144.402 42.0918 138.692 40.3588 132.229H28.5312C26.4675 132.229 24.4883 131.41 23.0291 129.95C21.5698 128.491 20.75 126.512 20.75 124.448C20.75 122.384 21.5698 120.405 23.0291 118.946C24.4883 117.487 26.4675 116.667 28.5312 116.667H40.3588C42.0918 110.205 45.9085 104.494 51.217 100.422C56.5255 96.3496 63.0293 94.1422 69.72 94.1422C76.4107 94.1422 82.9145 96.3496 88.223 100.422C93.5315 104.494 97.3482 110.205 99.0813 116.667H220.469C222.532 116.667 224.512 117.487 225.971 118.946C227.43 120.405 228.25 122.384 228.25 124.448Z" fill="white"/>
</svg>
