<svg width="228" height="217" viewBox="0 0 228 217" fill="none" xmlns="http://www.w3.org/2000/svg">
<path d="M65.3333 108.5C35.5483 108.5 11.375 84.3267 11.375 54.5417C11.375 24.7567 35.5483 0.583334 65.3333 0.583334C95.1183 0.583334 119.292 24.7567 119.292 54.5417C119.292 84.3267 95.1183 108.5 65.3333 108.5ZM6.51872 168.933C10.7275 164.617 16.0154 162.458 22.1666 162.458H97.7083L120.155 154.58L116.594 144.436L97.7083 151.667H67.4917C63.7146 151.667 60.6929 150.156 58.2108 147.674C55.7287 145.192 54.5417 142.17 54.5417 138.825C54.5417 132.997 57.3475 129.004 62.9592 126.738L141.415 97.7083H162.458V194.833L86.9167 216.417L0.259558 184.042C0.151641 178.322 2.30997 173.25 6.51872 168.933ZM184.042 97.7083H227.381V216.417H184.042V97.7083Z" fill="white"/>
</svg>
