<svg width="24" height="24" viewBox="0 0 24 24" fill="none" xmlns="http://www.w3.org/2000/svg">
<path d="M20 20L15.95 15.95M15.95 15.95C16.6 15.3 17.1157 14.5282 17.4675 13.6789C17.8193 12.8296 18.0004 11.9193 18.0004 11C18.0004 10.0807 17.8193 9.17041 17.4675 8.32109C17.1157 7.47176 16.6 6.70005 15.95 6.05001C15.3 5.39996 14.5282 4.88432 13.6789 4.53252C12.8296 4.18072 11.9193 3.99965 11 3.99965C10.0807 3.99965 9.17041 4.18072 8.32109 4.53252C7.47176 4.88432 6.70005 5.39996 6.05001 6.05001C4.73718 7.36283 3.99965 9.1434 3.99965 11C3.99965 12.8566 4.73718 14.6372 6.05001 15.95C7.36283 17.2628 9.1434 18.0004 11 18.0004C12.8566 18.0004 14.6372 17.2628 15.95 15.95Z" stroke="#777777" stroke-opacity="0.94902" stroke-width="2" stroke-linecap="round" stroke-linejoin="round"/>
</svg>
